<svg xmlns="http://www.w3.org/2000/svg" viewBox="0 0 128 128">
  <rect width="128" height="128" rx="6" fill="#3178c6"/>
  <path fill="#fff" d="M22 63.1h18.6v9.3H32v46.4h-10V72.4H12V63.1z"/>
  <path fill="#fff" d="M70.7 63.1v9.5H58v5.2c1.3-.1 2.7-.2 4.2-.2 4.3 0 7.8.9 10.3 2.8 2.6 1.8 4.2 4 4.8 6.4.4 1.6.6 3.1.6 4.5 0 5-1.7 9-5 11.8-3.4 2.9-8 4.3-13.8 4.3-3.5 0-6.8-.4-9.8-1.2v-9c2.6 1.2 5.5 1.8 8.6 1.8 2.8 0 5-.6 6.5-1.8 1.5-1.2 2.3-2.9 2.3-5.1 0-2-.7-3.6-2.1-4.8-1.4-1.2-3.5-1.8-6.3-1.8-1.5 0-3 .1-4.5.4-1.5.2-2.9.6-4.3 1V63.1h21.2z"/>
</svg>
